<?xml version="1.0" encoding="UTF-8"?>
<svg id="Layer_1" data-name="Layer 1" xmlns="http://www.w3.org/2000/svg" viewBox="0 0 274.05 290">
  <defs>
    <style>
      .cls-1 {
        fill: #5b0a78;
      }

      .cls-2 {
        fill: none;
        stroke: #5b0a78;
        stroke-miterlimit: 10;
        stroke-width: 20px;
      }
    </style>
  </defs>
  <path class="cls-1" d="M130.35,20c31.36,0,56.87,25.51,56.87,56.87s-25.51,56.87-56.87,56.87-56.87-25.51-56.87-56.87,25.51-56.87,56.87-56.87m0-20C87.89,0,53.47,34.42,53.47,76.87s34.42,76.87,76.87,76.87,76.87-34.42,76.87-76.87S172.8,0,130.35,0h0Z"/>
  <path class="cls-2" d="M223.79,289.57v-100.51"/>
  <path class="cls-2" d="M274.05,239.32h-100.51"/>
  <path class="cls-2" d="M10,290c0-57.32,40.08-105.28,93.74-117.4,8.56-1.93,17.47-2.95,26.61-2.95,4.96,0,9.86,.3,14.66,.88,6.22,.76,12.3,1.99,18.19,3.66,12.41,3.51,24,8.97,34.43,16.01"/>
</svg>