<?xml version="1.0" encoding="UTF-8"?>
<svg id="Layer_1" data-name="Layer 1" xmlns="http://www.w3.org/2000/svg" viewBox="0 0 443.22 300">
  <defs>
    <style>
      .cls-1 {
        fill: #5a0a78;
      }
    </style>
  </defs>
  <path class="cls-1" d="M352.59,20c38.94,0,70.63,31.68,70.63,70.63v91.24c0,16.77-6.43,32.61-18.1,44.63l-6.97,7.17,1.56,9.88,4.48,28.42-31.12-9.09-55.33-16.15-2.74-.8H90.63c-38.94,0-70.63-31.68-70.63-70.63V90.63c0-38.94,31.68-70.63,70.63-70.63H352.59m0-20H90.63C40.57,0,0,40.57,0,90.63v84.68c0,50.05,40.57,90.63,90.63,90.63h221.5l55.33,16.15,61.39,17.92-9.38-59.57c14.7-15.13,23.76-35.78,23.76-58.56V90.63C443.22,40.57,402.64,0,352.59,0h0Z"/>
  <g>
    <path class="cls-1" d="M221.61,152.56c-8.74,0-15.85-7.11-15.85-15.85s7.11-15.85,15.85-15.85,15.85,7.11,15.85,15.85-7.11,15.85-15.85,15.85Z"/>
    <path class="cls-1" d="M221.61,130.85c3.23,0,5.85,2.63,5.85,5.85s-2.63,5.85-5.85,5.85-5.85-2.63-5.85-5.85,2.63-5.85,5.85-5.85m0-20c-14.28,0-25.85,11.58-25.85,25.85s11.58,25.85,25.85,25.85,25.85-11.58,25.85-25.85-11.58-25.85-25.85-25.85h0Z"/>
  </g>
  <g>
    <circle class="cls-1" cx="103.42" cy="136.7" r="15.85"/>
    <path class="cls-1" d="M103.42,130.85c3.23,0,5.85,2.63,5.85,5.85s-2.63,5.85-5.85,5.85-5.85-2.63-5.85-5.85,2.63-5.85,5.85-5.85m0-20c-14.28,0-25.85,11.58-25.85,25.85s11.58,25.85,25.85,25.85,25.85-11.58,25.85-25.85-11.58-25.85-25.85-25.85h0Z"/>
  </g>
  <g>
    <circle class="cls-1" cx="339.8" cy="136.7" r="15.85"/>
    <path class="cls-1" d="M339.8,130.85c3.23,0,5.85,2.63,5.85,5.85s-2.63,5.85-5.85,5.85-5.85-2.63-5.85-5.85,2.63-5.85,5.85-5.85m0-20c-14.28,0-25.85,11.58-25.85,25.85s11.58,25.85,25.85,25.85,25.85-11.58,25.85-25.85-11.58-25.85-25.85-25.85h0Z"/>
  </g>
</svg>