<?xml version="1.0" encoding="UTF-8"?>
<svg id="Layer_1" data-name="Layer 1" xmlns="http://www.w3.org/2000/svg" viewBox="0 0 300 277.12">
  <defs>
    <style>
      .cls-1 {
        fill: #5a0a78;
      }
    </style>
  </defs>
  <path class="cls-1" d="M211.02,20c38.04,0,68.98,30.95,68.98,68.98,0,17.28-6.41,33.79-18.05,46.53l-111.95,113.17L38.05,135.51c-11.64-12.74-18.05-29.25-18.05-46.53,0-38.04,30.95-68.98,68.98-68.98,17.37,0,33.97,6.48,46.74,18.24l.31,.29,.24,.22,13.73,12.96,13.73-12.96,.24-.22,.31-.29c12.77-11.77,29.37-18.24,46.74-18.24m0-20c-23.28,0-44.47,8.94-60.33,23.57-.23,.22-.46,.43-.69,.64-.23-.22-.46-.43-.69-.64C133.46,8.94,112.26,0,88.98,0,39.84,0,0,39.84,0,88.98c0,23.28,8.94,44.47,23.57,60.33l126.43,127.81,126.43-127.81c14.62-15.86,23.57-37.05,23.57-60.33C300,39.84,260.16,0,211.02,0h0Z"/>
</svg>