<?xml version="1.0" encoding="UTF-8"?>
<svg id="Layer_1" data-name="Layer 1" xmlns="http://www.w3.org/2000/svg" viewBox="0 0 300.34 299.96">
  <defs>
    <style>
      .cls-1 {
        fill: #5b0a78;
      }
    </style>
  </defs>
  <path class="cls-1" d="M223.05,210.78c.56,0,1.04,.2,1.43,.59l47.58,47.58-12.73,12.73-47.58-47.58c-.79-.79-.79-2.07,0-2.86l9.87-9.87c.39-.39,.87-.59,1.43-.59m0-20c-5.64,0-11.27,2.15-15.57,6.45l-9.87,9.87c-8.6,8.6-8.6,22.54,0,31.15l61.72,61.72,41.01-41.01-61.72-61.72c-4.3-4.3-9.94-6.45-15.57-6.45h0Z"/>
  <path class="cls-1" d="M100.32,20c44.28,0,80.31,36.03,80.31,80.31s-36.03,80.32-80.31,80.32S20,144.6,20,100.31,56.03,20,100.32,20m0-20C44.91,0,0,44.91,0,100.31s44.91,100.32,100.32,100.32,100.31-44.91,100.31-100.32S155.72,0,100.32,0h0Z"/>
  <polygon class="cls-1" points="174.17 146.92 147.3 173.79 185.07 211.56 211.94 184.69 174.17 146.92 174.17 146.92"/>
</svg>