<svg xmlns="http://www.w3.org/2000/svg" version="1.1" viewBox="92 614 1816 2536"><path d="M 611 1217 L 611 1471 677 1471 L 743 1471 743 1217 L 743 963 677 963 L 611 963 611 1217 M 950 1317 L 950 1471 1024 1471 L 1098 1471 1098 1317 L 1098 1163 1024 1163 L 950 1163 950 1317 M 201 1951 L 201 2223 294 2223 L 387 2223 387 1951 L 387 1679 294 1679 L 201 1679 201 1951 M 847 2021 L 847 2223 920.500 2223 L 994 2223 994 2021 L 994 1819 920.500 1819 L 847 1819 847 2021 M 343 2521.242 C 343 2521.492, 339.804 2530.878, 335.898 2542.099 C 331.991 2553.319, 327.499 2566.325, 325.916 2571 C 324.332 2575.675, 321.210 2584.675, 318.979 2591 C 316.747 2597.325, 313.635 2606.325, 312.063 2611 C 310.491 2615.675, 305.957 2628.725, 301.988 2640 C 298.019 2651.275, 293.485 2664.325, 291.913 2669 C 290.341 2673.675, 287.441 2682, 285.469 2687.500 C 283.496 2693, 280.594 2701.325, 279.018 2706 C 276.095 2714.673, 267.845 2738.364, 254.989 2775 C 251.032 2786.275, 246.501 2799.325, 244.920 2804 C 239.869 2818.932, 235.351 2832.009, 228.507 2851.500 C 224.838 2861.950, 218.766 2879.275, 215.015 2890 C 211.264 2900.725, 207.251 2912.158, 206.097 2915.407 C 204.944 2918.655, 204 2921.409, 204 2921.527 C 204 2921.644, 206.137 2922.312, 208.750 2923.012 C 211.363 2923.711, 216.875 2925.534, 221 2927.062 C 225.125 2928.590, 243.125 2934.877, 261 2941.032 C 278.875 2947.188, 297.038 2953.548, 301.361 2955.167 C 305.685 2956.786, 309.382 2957.951, 309.577 2957.757 C 309.978 2957.356, 324.472 2916.038, 334.048 2888 C 335.644 2883.325, 338.776 2874.325, 341.007 2868 C 343.238 2861.675, 346.110 2853.350, 347.391 2849.500 C 348.671 2845.650, 354.568 2828.775, 360.496 2812 C 366.423 2795.225, 372.551 2777.675, 374.112 2773 C 375.673 2768.325, 378.764 2759.325, 380.979 2753 C 383.195 2746.675, 386.537 2737, 388.406 2731.500 C 390.275 2726, 397.248 2706.030, 403.902 2687.123 C 410.556 2668.215, 416 2652.308, 416 2651.774 C 416 2651.240, 416.679 2649.371, 417.510 2647.621 C 418.340 2645.872, 420.104 2641.079, 421.429 2636.970 C 423.791 2629.649, 432.243 2605.245, 443.385 2573.577 C 446.467 2564.820, 448.878 2557.554, 448.744 2557.431 C 448.610 2557.308, 444.900 2556.050, 440.500 2554.637 C 436.100 2553.223, 427.325 2550.237, 421 2548.002 C 414.675 2545.766, 406.350 2542.894, 402.500 2541.619 C 396.651 2539.682, 348.230 2522.756, 344.250 2521.257 C 343.563 2520.998, 343 2520.991, 343 2521.242 M 1128 2762 L 1128 2965 1223 2965 L 1318 2965 1318 2762 L 1318 2559 1223 2559 L 1128 2559 1128 2762" stroke="none" fill="#ffffff" fill-rule="evenodd"/><path d="M 201 1190 L 201 1471 262 1471 L 323 1471 323 1190 L 323 909 262 909 L 201 909 201 1190 M 1282 1196 L 1282 1471 1366.500 1471 L 1451 1471 1451 1196 L 1451 921 1366.500 921 L 1282 921 1282 1196 M 1634 1226 L 1634 1471 1716.500 1471 L 1799 1471 1799 1226 L 1799 981 1716.500 981 L 1634 981 1634 1226 M 994 1936 L 994 2223 1066.500 2223 L 1139 2223 1139 1936 L 1139 1649 1066.500 1649 L 994 1649 994 1936 M 534 1978 L 534 2223 596.500 2223 L 659 2223 659 1978 L 659 1733 596.500 1733 L 534 1733 534 1978 M 1318 2717 L 1318 2965 1386.500 2965 L 1455 2965 1455 2717 L 1455 2469 1386.500 2469 L 1318 2469 1318 2717 M 626 2739.500 L 626 2965 698.500 2965 L 771 2965 771 2739.500 L 771 2514 698.500 2514 L 626 2514 626 2739.500" stroke="none" fill="#299da4" fill-rule="evenodd"/><path d="M 442 1200 L 442 1471 526.500 1471 L 611 1471 611 1200 L 611 929 526.500 929 L 442 929 442 1200 M 1098 1261 L 1098 1471 1190 1471 L 1282 1471 1282 1261 L 1282 1051 1190 1051 L 1098 1051 1098 1261 M 658.340 1725.162 C 658.703 1738.451, 659 1855.901, 659 1986.162 L 659 2223 753 2223 L 847 2223 847 1962 L 847 1701 752.340 1701 L 657.680 1701 658.340 1725.162 M 1331 2002.500 L 1331 2223 1405 2223 L 1479 2223 1479 2002.500 L 1479 1782 1405 1782 L 1331 1782 1331 2002.500 M 1458 2664 L 1458 2965 1558 2965 L 1658 2965 1658 2681 C 1658 2492.333, 1658.336 2397, 1659 2397 C 1659.627 2397, 1660 2390.667, 1660 2380 L 1660 2363 1559 2363 L 1458 2363 1458 2664 M 458 2748.500 L 458 2965 542 2965 L 626 2965 626 2748.500 L 626 2532 542 2532 L 458 2532 458 2748.500" stroke="none" fill="#003d06" fill-rule="evenodd"/><path d="M 92 1882 L 92 3150 1000 3150 L 1908 3150 1908 1882 L 1908 614 1000 614 L 92 614 92 1882 M 201 1135 L 201 1471 1000 1471 L 1799 1471 1799 1135 L 1799 799 1000 799 L 201 799 201 1135 M 201 1887 L 201 2223 1000 2223 L 1799 2223 1799 1887 L 1799 1551 1000 1551 L 201 1551 201 1887 M 1616 1664.007 C 1614.625 1664.474, 1606.750 1666.716, 1598.500 1668.989 C 1578.993 1674.363, 1579.786 1674.119, 1580.255 1674.588 C 1580.675 1675.009, 1620.175 1664.158, 1620.914 1663.419 C 1621.591 1662.743, 1618.707 1663.088, 1616 1664.007 M 1529.500 1688.511 C 1528.950 1688.706, 1518.475 1691.657, 1506.222 1695.071 C 1493.969 1698.484, 1484.122 1701.455, 1484.341 1701.674 C 1484.559 1701.893, 1494.585 1699.324, 1506.619 1695.966 C 1530.656 1689.258, 1534.233 1688.158, 1532 1688.158 C 1531.175 1688.158, 1530.050 1688.317, 1529.500 1688.511 M 1665.219 1699.500 C 1667.921 1710.018, 1672.348 1724.986, 1672.663 1724.670 C 1673.182 1724.151, 1666.259 1698.906, 1665.380 1698.111 C 1665.009 1697.775, 1664.936 1698.400, 1665.219 1699.500 M 1478.079 1748.638 C 1478.036 1749.264, 1479.067 1753.539, 1480.370 1758.138 C 1481.674 1762.737, 1482.979 1767.400, 1483.270 1768.500 C 1483.562 1769.600, 1484.929 1774.325, 1486.309 1779 C 1487.688 1783.675, 1489.338 1789.458, 1489.974 1791.851 C 1490.611 1794.244, 1491.329 1796.005, 1491.569 1795.764 C 1491.810 1795.523, 1489.077 1785.015, 1485.495 1772.413 C 1478.559 1748.011, 1478.202 1746.866, 1478.079 1748.638 M 1691.334 1791.500 C 1692.118 1795.910, 1701.410 1827.924, 1701.794 1827.540 C 1702.165 1827.169, 1699.210 1815.809, 1695.279 1802.500 C 1693.241 1795.596, 1690.903 1789.079, 1691.334 1791.500 M 1505.206 1845.500 C 1507.510 1854.682, 1514.410 1877.924, 1514.735 1877.598 C 1515.218 1877.115, 1506.093 1844.735, 1505.267 1844 C 1504.958 1843.725, 1504.930 1844.400, 1505.206 1845.500 M 1719 1889.514 C 1719 1889.980, 1720.542 1895.793, 1722.427 1902.431 C 1724.312 1909.069, 1726.367 1916.458, 1726.993 1918.851 C 1727.619 1921.244, 1728.349 1922.984, 1728.615 1922.718 C 1728.881 1922.452, 1727.004 1914.869, 1724.444 1905.867 C 1720.137 1890.727, 1719 1887.309, 1719 1889.514 M 1532.405 1941.500 C 1534.138 1949.083, 1541.368 1973.965, 1541.732 1973.601 C 1542.189 1973.144, 1533.025 1939.783, 1532.228 1939 C 1531.948 1938.725, 1532.027 1939.850, 1532.405 1941.500 M 1743.099 1974.424 C 1742.962 1975.708, 1753.051 2011.384, 1753.726 2012 C 1754.518 2012.723, 1753.644 2009.088, 1749.639 1995 C 1745.275 1979.649, 1743.229 1973.211, 1743.099 1974.424 M 1559.072 2035.500 C 1558.938 2037.063, 1571.298 2080.036, 1571.751 2079.582 C 1572.110 2079.223, 1568.950 2067.453, 1562.870 2046.500 C 1560.148 2037.120, 1559.175 2034.302, 1559.072 2035.500 M 1772.380 2078.500 C 1773.132 2082.695, 1782.415 2114.919, 1782.769 2114.564 C 1783.249 2114.084, 1777.753 2093.732, 1774.516 2084 C 1773.144 2079.875, 1772.182 2077.400, 1772.380 2078.500 M 1586.071 2130.821 C 1586.032 2131.548, 1587.742 2138.298, 1589.871 2145.821 C 1592 2153.345, 1594.081 2160.850, 1594.494 2162.500 C 1594.908 2164.150, 1595.409 2165.050, 1595.608 2164.500 C 1595.806 2163.950, 1593.758 2155.850, 1591.055 2146.500 C 1588.353 2137.150, 1586.110 2130.095, 1586.071 2130.821 M 1753.500 2167.147 C 1741.950 2170.431, 1731.600 2173.544, 1730.500 2174.064 L 1728.500 2175.011 1730.500 2174.581 C 1734.797 2173.658, 1776.487 2161.847, 1776.897 2161.436 C 1777.947 2160.387, 1773.219 2161.541, 1753.500 2167.147 M 1678.500 2188.515 C 1677.950 2188.711, 1667.488 2191.676, 1655.251 2195.104 C 1643.014 2198.531, 1633.181 2201.515, 1633.400 2201.734 C 1633.923 2202.256, 1679.929 2189.405, 1680.856 2188.478 C 1681.389 2187.945, 1680.037 2187.966, 1678.500 2188.515 M 201 2629 L 201 2965 1000 2965 L 1799 2965 1799 2629 L 1799 2293 1000 2293 L 201 2293 201 2629" stroke="none" fill="#754b23" fill-rule="evenodd"/><path d="" stroke="none" fill="#000000" fill-rule="evenodd"/><path d="M 201 854 L 201 909 262 909 L 323 909 323 939 L 323 969 379 969 L 435 969 435 1220 L 435 1471 438.500 1471 L 442 1471 442 1200 L 442 929 526.500 929 L 611 929 611 946 L 611 963 677 963 L 743 963 743 989 L 743 1015 849 1015 L 955 1015 955 1089 L 955 1163 1026.500 1163 L 1098 1163 1098 1107 L 1098 1051 1190 1051 L 1282 1051 1282 986 L 1282 921 1366.500 921 L 1451 921 1451 937 L 1451 953 1542 953 L 1633 953 1633.248 1212.250 L 1633.496 1471.500 1633.750 1226.250 L 1634.004 981 1716.502 981 L 1799 981 1799 890 L 1799 799 1000 799 L 201 799 201 854 M 201 1615 L 201 1679 294 1679 L 387 1679 387 1720 L 387 1761 460.500 1761 L 534 1761 534 1747 L 534 1733 596 1733 L 658 1733 658 1717 L 658 1701 752.500 1701 L 847 1701 847 1760 L 847 1819 920.500 1819 L 994 1819 994 1734 L 994 1649 1066.500 1649 L 1139 1649 1139 1652.500 L 1139 1656 1235 1656 L 1331 1656 1331 1719 L 1331 1782 1405 1782 L 1479 1782 1479 2002.500 L 1479 2223 1639 2223 L 1799 2223 1799 1887 L 1799 1551 1000 1551 L 201 1551 201 1615 M 1648.500 1654.998 C 1646.850 1655.428, 1641.675 1656.895, 1637 1658.258 C 1632.325 1659.621, 1621.525 1662.640, 1613 1664.967 C 1604.475 1667.294, 1593.675 1670.321, 1589 1671.693 C 1584.325 1673.065, 1576 1675.453, 1570.500 1677 C 1565 1678.547, 1556.675 1680.921, 1552 1682.277 C 1547.325 1683.632, 1539 1685.968, 1533.500 1687.467 C 1514.636 1692.608, 1477.499 1703.171, 1472 1704.959 C 1468.611 1706.061, 1466.568 1707.275, 1466.678 1708.124 C 1466.776 1708.881, 1468.274 1714.450, 1470.008 1720.500 C 1471.742 1726.550, 1474.940 1738.025, 1477.115 1746 C 1482.389 1765.336, 1483.250 1768.396, 1487.520 1783 C 1489.530 1789.875, 1491.419 1796.400, 1491.717 1797.500 C 1492.015 1798.600, 1493.366 1803.325, 1494.717 1808 C 1497.929 1819.110, 1503.793 1840.042, 1505.642 1847 C 1506.446 1850.025, 1510.273 1863.525, 1514.147 1877 C 1518.021 1890.475, 1521.431 1902.400, 1521.725 1903.500 C 1522.019 1904.600, 1523.378 1909.325, 1524.746 1914 C 1526.113 1918.675, 1527.822 1924.750, 1528.544 1927.500 C 1534.102 1948.667, 1540.406 1971.068, 1548.526 1998.500 C 1549.991 2003.450, 1551.822 2009.862, 1552.595 2012.750 C 1553.368 2015.638, 1554.650 2020.362, 1555.444 2023.250 C 1556.239 2026.138, 1557.853 2032.100, 1559.031 2036.500 C 1560.209 2040.900, 1563.664 2053.050, 1566.709 2063.500 C 1569.754 2073.950, 1572.473 2083.400, 1572.752 2084.500 C 1573.031 2085.600, 1574.368 2090.325, 1575.724 2095 C 1580.258 2110.640, 1584.128 2124.434, 1586.095 2131.964 C 1588.737 2142.082, 1593.734 2159.740, 1599.831 2180.500 C 1601.446 2186, 1603.803 2194.325, 1605.069 2199 C 1606.335 2203.675, 1607.647 2207.837, 1607.984 2208.248 C 1608.321 2208.660, 1613.975 2207.495, 1620.548 2205.660 C 1627.122 2203.825, 1637.900 2200.839, 1644.500 2199.025 C 1656.241 2195.797, 1670.977 2191.627, 1688 2186.713 C 1692.675 2185.364, 1697.400 2184.021, 1698.500 2183.730 C 1699.600 2183.438, 1704.325 2182.088, 1709 2180.729 C 1713.675 2179.370, 1722 2177.032, 1727.500 2175.533 C 1746.364 2170.392, 1783.501 2159.829, 1789 2158.041 C 1792.389 2156.939, 1794.432 2155.725, 1794.322 2154.876 C 1794.224 2154.119, 1792.721 2148.550, 1790.983 2142.500 C 1789.244 2136.450, 1787.218 2129.250, 1786.481 2126.500 C 1781.049 2106.224, 1776.315 2089.332, 1770.507 2069.500 C 1766.803 2056.850, 1763.183 2044.250, 1762.464 2041.500 C 1761.744 2038.750, 1760.171 2033.125, 1758.968 2029 C 1757.765 2024.875, 1755.960 2018.350, 1754.958 2014.500 C 1752.247 2004.088, 1743.564 1973.430, 1736.832 1950.500 C 1733.644 1939.640, 1732.306 1934.955, 1730.693 1929 C 1729.052 1922.944, 1714.580 1871.625, 1709.824 1855 C 1708.173 1849.225, 1706.217 1842.250, 1705.479 1839.500 C 1704.740 1836.750, 1702.712 1829.325, 1700.972 1823 C 1699.231 1816.675, 1697.441 1810.150, 1696.994 1808.500 C 1696.547 1806.850, 1693.166 1795.150, 1689.481 1782.500 C 1685.795 1769.850, 1682.190 1757.250, 1681.468 1754.500 C 1679.397 1746.604, 1666.783 1701.681, 1659.721 1677.047 C 1656.180 1664.698, 1652.883 1654.509, 1652.392 1654.405 C 1651.901 1654.301, 1650.150 1654.568, 1648.500 1654.998 M 201 2629 L 201 2965 329.500 2965 L 458 2965 458 2748.500 L 458 2532 542 2532 L 626 2532 626 2523 L 626 2514 698.498 2514 L 770.996 2514 771.250 2739.750 L 771.504 2965.500 771.752 2681.250 L 772 2397 856.500 2397 L 941 2397 941 2434 L 941 2471 1036 2471 L 1131 2471 1131 2515 L 1131 2559 1224.500 2559 L 1318 2559 1318 2514 L 1318 2469 1386.500 2469 L 1455 2469 1455 2717 C 1455 2936.778, 1455.171 2965, 1456.500 2965 C 1457.830 2965, 1458 2930.889, 1458 2664 L 1458 2363 1559 2363 L 1660 2363 1660 2380 L 1660 2397 1729.500 2397 L 1799 2397 1799 2345 L 1799 2293 1000 2293 L 201 2293 201 2629 M 341.259 2523.250 C 340.666 2525.037, 336.949 2535.725, 332.998 2547 C 329.047 2558.275, 323.139 2575.375, 319.869 2585 C 316.599 2594.625, 313.484 2603.400, 312.946 2604.500 C 312.408 2605.600, 310.870 2609.875, 309.529 2614 C 306.729 2622.609, 303.105 2633.131, 292.996 2662 C 275.825 2711.035, 271.700 2722.930, 269.444 2729.922 C 268.127 2734.004, 266.167 2739.629, 265.089 2742.422 C 264.010 2745.215, 256.763 2765.950, 248.982 2788.500 C 241.202 2811.050, 233.523 2832.965, 231.918 2837.199 C 230.313 2841.434, 229 2845.394, 229 2846 C 229 2846.606, 227.686 2850.566, 226.080 2854.801 C 219.024 2873.405, 202.931 2921.079, 203.433 2921.891 C 203.736 2922.382, 208.601 2924.248, 214.242 2926.038 C 219.884 2927.828, 224.950 2929.630, 225.500 2930.043 C 226.050 2930.456, 230.100 2931.957, 234.500 2933.379 C 246.564 2937.278, 299.285 2955.530, 305.315 2957.896 C 309.622 2959.585, 310.570 2959.271, 311.795 2955.750 C 312.417 2953.963, 314.480 2948, 316.380 2942.500 C 318.280 2937, 322.839 2923.950, 326.512 2913.500 C 337.319 2882.747, 346.960 2855.114, 350.062 2846 C 355.728 2829.354, 359.922 2817.225, 367.006 2797 C 370.955 2785.725, 376.861 2768.625, 380.131 2759 C 383.401 2749.375, 386.516 2740.600, 387.054 2739.500 C 387.592 2738.400, 389.130 2734.125, 390.471 2730 C 391.813 2725.875, 394.479 2718, 396.398 2712.500 C 398.316 2707, 401.441 2698, 403.342 2692.500 C 405.243 2687, 410.033 2673.275, 413.987 2662 C 420.800 2642.568, 424.278 2632.523, 430.950 2613 C 432.548 2608.325, 435.425 2600, 437.343 2594.500 C 439.261 2589, 442.926 2578.480, 445.487 2571.122 C 448.049 2563.765, 449.775 2557.379, 449.322 2556.932 C 448.870 2556.485, 444.225 2554.721, 439 2553.012 C 433.775 2551.304, 428.600 2549.473, 427.500 2548.943 C 426.400 2548.413, 421.450 2546.616, 416.500 2544.949 C 397.814 2538.657, 389.940 2535.959, 370.500 2529.187 C 359.500 2525.355, 349.233 2521.720, 347.685 2521.110 C 343.377 2519.412, 342.426 2519.729, 341.259 2523.250" stroke="none" fill="#603813" fill-rule="evenodd"/><path d="M 201 1190 L 201 1471 262 1471 L 323 1471 323 1190 L 323 909 262 909 L 201 909 201 1190 M 1282 1196 L 1282 1471 1366.500 1471 L 1451 1471 1451 1196 L 1451 921 1366.500 921 L 1282 921 1282 1196 M 1634 1226 L 1634 1471 1716.500 1471 L 1799 1471 1799 1226 L 1799 981 1716.500 981 L 1634 981 1634 1226 M 994 1936 L 994 2223 1066.500 2223 L 1139 2223 1139 1936 L 1139 1649 1066.500 1649 L 994 1649 994 1936 M 534 1978 L 534 2223 596.500 2223 L 659 2223 659 1978 L 659 1733 596.500 1733 L 534 1733 534 1978 M 1318 2717 L 1318 2965 1386.500 2965 L 1455 2965 1455 2717 L 1455 2469 1386.500 2469 L 1318 2469 1318 2717 M 626 2739.500 L 626 2965 698.500 2965 L 771 2965 771 2739.500 L 771 2514 698.500 2514 L 626 2514 626 2739.500" stroke="none" fill="#299da4" fill-rule="evenodd"/><path d="M 1451 1212 L 1451 1471 1542 1471 L 1633 1471 1633 1212 L 1633 953 1542 953 L 1451 953 1451 1212 M 323 1220 L 323 1471 379 1471 L 435 1471 435 1220 L 435 969 379 969 L 323 969 323 1220 M 1139 1939.500 L 1139 2223 1235 2223 L 1331 2223 1331 1939.500 L 1331 1656 1235 1656 L 1139 1656 1139 1939.500 M 772 2681 L 772 2965 856.500 2965 L 941 2965 941 2681 L 941 2397 856.500 2397 L 772 2397 772 2681 M 1658 2681 L 1658 2965 1728.500 2965 L 1799 2965 1799 2681 L 1799 2397 1728.500 2397 L 1658 2397 1658 2681" stroke="none" fill="#5b0a78" fill-rule="evenodd"/><path d="M 743 1243 L 743 1471 846.500 1471 L 950 1471 950 1317 L 950 1163 952.500 1163 L 955 1163 955 1089 L 955 1015 849 1015 L 743 1015 743 1243 M 1648 1656.002 C 1645.755 1656.760, 1632.756 1660.434, 1579 1675.502 C 1546.072 1684.732, 1477.372 1704.168, 1472.228 1705.708 C 1468.228 1706.907, 1467.075 1707.675, 1467.448 1708.894 C 1468.492 1712.309, 1475.285 1736.070, 1478.485 1747.500 C 1480.333 1754.100, 1484.830 1770.075, 1488.479 1783 C 1492.128 1795.925, 1497.133 1813.700, 1499.600 1822.500 C 1502.068 1831.300, 1504.948 1841.425, 1506 1845 C 1507.052 1848.575, 1510.873 1862.075, 1514.491 1875 C 1522.935 1905.166, 1547.564 1992.513, 1550.019 2001 C 1551.053 2004.575, 1554.879 2018.075, 1558.522 2031 C 1567.345 2062.309, 1574.499 2087.657, 1582.373 2115.500 C 1585.950 2128.150, 1591.846 2149.075, 1595.476 2162 C 1605.057 2196.119, 1608.293 2207.462, 1608.542 2207.798 C 1608.777 2208.116, 1614 2206.694, 1650.500 2196.376 C 1663.150 2192.800, 1678.900 2188.361, 1685.500 2186.512 C 1692.100 2184.664, 1716.850 2177.686, 1740.500 2171.007 C 1764.150 2164.328, 1785.887 2158.200, 1788.804 2157.388 C 1793.001 2156.221, 1794 2155.557, 1793.594 2154.206 C 1792.598 2150.889, 1783.033 2117.195, 1776.504 2094 C 1772.866 2081.075, 1768.359 2065.100, 1766.490 2058.500 C 1760.761 2038.266, 1744.086 1979.198, 1740.519 1966.500 C 1738.665 1959.900, 1733.081 1940.100, 1728.110 1922.500 C 1723.139 1904.900, 1714.764 1875.200, 1709.500 1856.500 C 1704.236 1837.800, 1699.064 1819.575, 1698.008 1816 C 1696.952 1812.425, 1694.022 1802.075, 1691.498 1793 C 1688.973 1783.925, 1685.825 1772.675, 1684.502 1768 C 1666.700 1705.097, 1657.843 1673.636, 1654.449 1661.250 C 1652.696 1654.851, 1652.318 1654.544, 1648 1656.002 M 387 1992 L 387 2223 460.500 2223 L 534 2223 534 1992 L 534 1761 460.500 1761 L 387 1761 387 1992 M 941 2718 L 941 2965 1034.500 2965 L 1128 2965 1128 2762 C 1128 2582.222, 1128.172 2559, 1129.500 2559 C 1130.811 2559, 1131 2553.444, 1131 2515 L 1131 2471 1036 2471 L 941 2471 941 2718" stroke="none" fill="#f0e5fb" fill-rule="evenodd"/></svg>